<?xml version="1.0" standalone="no"?>
<!DOCTYPE svg PUBLIC "-//W3C//DTD SVG 20010904//EN"
 "http://www.w3.org/TR/2001/REC-SVG-20010904/DTD/svg10.dtd">
<svg version="1.0" xmlns="http://www.w3.org/2000/svg"
 width="1890.000000pt" height="1890.000000pt" viewBox="0 0 1890.000000 1890.000000"
 preserveAspectRatio="xMidYMid meet">
<metadata>
Created by potrace 1.11, written by Peter Selinger 2001-2013
</metadata>
<g transform="translate(0.000000,1890.000000) scale(0.100000,-0.100000)"
fill="#000000" stroke="none">
<path d="M1180 13575 c-8 -25 -6 -44 11 -95 46 -142 112 -195 203 -160 20 7
36 3 82 -21 54 -29 84 -51 84 -62 0 -3 -37 -5 -81 -6 -45 -1 -85 -4 -90 -7 -7
-4 68 -114 95 -139 16 -15 168 -188 189 -216 9 -13 17 -29 17 -36 0 -7 5 -13
10 -13 6 0 10 -9 10 -20 0 -28 59 -106 122 -162 70 -62 236 -188 247 -188 5 0
14 -7 21 -15 6 -7 35 -28 63 -45 70 -41 89 -53 105 -67 7 -7 41 -28 75 -48 34
-19 82 -53 107 -75 25 -22 63 -50 85 -61 22 -10 51 -26 65 -34 21 -12 264
-129 375 -180 17 -7 68 -32 115 -54 47 -23 93 -41 101 -41 8 0 19 -4 25 -9 5
-5 34 -16 65 -25 55 -15 96 -46 85 -64 -7 -12 -139 -5 -183 9 -18 6 -50 12
-70 15 -74 8 -278 52 -352 76 -19 6 -55 23 -80 37 -39 23 -85 35 -217 55 -6 1
-26 14 -43 29 -35 29 -41 30 -90 21 -37 -8 -39 -16 -9 -29 30 -14 33 -32 6
-41 -32 -10 -175 -7 -230 5 -25 6 -81 27 -125 47 -87 41 -81 39 -143 49 -24 4
-52 11 -62 16 -9 5 -19 5 -22 0 -6 -9 15 -61 26 -61 3 0 29 -21 56 -47 69 -66
113 -99 142 -108 14 -4 39 -18 55 -30 17 -12 46 -29 66 -38 20 -9 42 -24 50
-33 7 -8 30 -23 51 -31 21 -8 38 -19 38 -24 0 -5 7 -9 15 -9 8 0 23 -4 33 -9
24 -12 111 -42 150 -51 18 -4 39 -13 46 -19 8 -7 18 -11 22 -9 5 1 18 -3 29
-9 11 -6 25 -12 30 -13 6 -1 20 -6 33 -11 13 -5 29 -9 35 -9 7 0 25 -7 41 -15
15 -8 38 -17 50 -19 99 -21 165 -39 246 -66 52 -17 104 -33 115 -35 70 -12
177 -35 186 -41 19 -11 62 -15 199 -17 74 -1 140 -5 145 -8 6 -4 24 -10 40
-14 17 -4 43 -22 58 -41 28 -32 28 -34 8 -34 -18 0 -20 -4 -15 -24 3 -13 1
-27 -5 -30 -6 -4 -11 -15 -11 -25 0 -13 -11 -21 -32 -26 -37 -9 -34 -8 -68
-20 -37 -12 -89 -12 -140 1 -25 6 -56 9 -70 6 -14 -3 -37 -6 -52 -6 -16 -1
-28 -5 -28 -11 0 -5 -4 -4 -8 3 -16 24 -67 1 -142 -65 -41 -36 -97 -77 -125
-91 -49 -26 -54 -27 -240 -27 -165 -1 -199 -3 -263 -22 -62 -19 -92 -21 -200
-18 -70 2 -140 5 -157 8 -53 8 -159 20 -190 21 -128 7 -79 -105 82 -185 45
-22 88 -42 95 -43 7 -1 18 -5 25 -9 16 -10 93 -38 118 -43 50 -9 102 -22 119
-29 14 -6 17 -5 12 3 -4 7 16 3 46 -9 60 -24 90 -29 100 -15 3 5 23 9 43 8 21
-1 47 4 58 10 16 8 22 8 25 0 3 -9 9 -9 23 -1 15 8 24 7 35 -2 13 -10 17 -10
25 2 7 10 11 11 17 2 5 -8 28 -10 67 -8 33 2 73 4 88 4 16 0 34 4 40 8 6 4 57
8 112 8 55 1 120 8 145 15 25 7 74 14 110 16 108 7 171 13 250 24 41 6 102 15
134 19 l59 8 43 -45 c24 -24 41 -48 38 -53 -3 -5 0 -9 6 -9 26 0 -3 -18 -47
-30 -27 -7 -58 -19 -70 -27 -13 -7 -23 -11 -23 -8 0 3 -10 -3 -21 -14 -15 -14
-30 -18 -49 -14 -19 3 -45 -4 -81 -22 -30 -15 -65 -29 -79 -32 -29 -5 -200
-71 -215 -83 -5 -4 -26 -11 -45 -15 -19 -4 -60 -20 -90 -35 -30 -16 -72 -31
-94 -34 -51 -7 -108 -47 -150 -106 -65 -90 -155 -134 -311 -151 -158 -18 -217
-45 -253 -115 -15 -29 24 -111 70 -146 63 -48 212 -95 318 -99 19 -1 42 -5 51
-10 9 -4 38 -9 65 -10 27 -1 54 -5 59 -8 16 -9 108 -9 132 0 14 5 23 4 27 -4
3 -8 7 -9 13 -1 4 5 24 10 43 10 37 0 107 20 127 36 7 5 17 7 23 3 5 -3 10 -2
10 4 0 5 16 15 35 21 19 6 35 16 35 21 0 5 3 8 8 8 27 -5 44 2 38 17 -3 8 -2
13 3 9 5 -3 18 5 28 19 18 22 50 38 85 41 23 2 91 50 152 107 28 26 55 48 59
48 5 0 24 7 43 15 19 8 50 22 70 31 20 9 38 13 41 10 3 -2 16 -1 29 4 32 12
38 -2 19 -41 -15 -28 -211 -229 -225 -229 -3 0 -31 -25 -63 -55 -33 -30 -63
-55 -68 -55 -5 0 -9 -5 -9 -10 0 -6 -10 -21 -21 -33 -38 -39 -51 -85 -44 -147
5 -42 2 -75 -11 -121 -25 -91 -84 -146 -242 -228 -135 -70 -182 -113 -228
-207 -82 -168 64 -289 298 -246 25 5 78 8 117 8 39 -1 71 2 71 5 0 7 56 2 77
-5 6 -3 14 2 17 10 3 9 10 13 16 9 5 -3 18 -1 29 4 17 10 19 8 14 -22 -3 -17
-8 -36 -13 -42 -4 -5 -13 -28 -20 -50 -7 -22 -16 -44 -21 -50 -5 -5 -9 -45 -9
-89 0 -94 -16 -134 -86 -217 -25 -29 -54 -64 -64 -76 -10 -12 -23 -39 -29 -60
-9 -32 -8 -42 8 -63 10 -14 31 -32 47 -40 16 -8 31 -18 34 -22 9 -11 159 -16
202 -6 67 15 139 54 213 115 96 79 123 98 181 121 52 22 174 36 174 21 0 -5 7
-9 15 -9 8 0 32 -25 52 -57 36 -53 38 -61 38 -132 0 -88 -10 -112 -113 -264
-118 -173 -162 -256 -162 -307 1 -73 37 -101 160 -120 41 -7 89 -18 105 -25
44 -19 89 -67 116 -122 21 -44 23 -59 20 -186 l-2 -137 29 -30 c26 -26 34 -28
59 -20 15 6 66 46 112 91 46 44 100 88 120 99 37 18 38 18 67 -1 16 -10 25
-19 20 -19 -5 0 1 -9 14 -20 13 -11 20 -26 16 -35 -3 -8 -2 -15 2 -15 21 0 41
30 52 78 7 28 15 52 19 52 20 0 33 -92 31 -220 -8 -387 -9 -379 49 -472 26
-44 36 -47 45 -15 5 22 6 22 20 2 7 -11 26 -49 41 -85 15 -36 33 -72 39 -80
13 -15 39 -122 52 -209 3 -24 13 -60 22 -80 14 -34 16 -35 21 -12 6 22 7 21
21 -15 8 -21 25 -58 37 -84 l21 -45 3 55 c1 30 1 129 0 220 -3 172 12 309 48
444 14 55 25 74 48 90 16 12 44 35 60 52 32 32 59 39 81 21 8 -6 12 -6 12 2 0
6 4 11 10 11 5 0 6 -8 3 -17 -6 -15 -4 -16 8 -6 15 12 18 11 78 -25 18 -11 20
-10 14 4 -4 12 -3 15 5 10 13 -8 13 -7 16 112 2 40 -1 75 -4 77 -4 3 -3 28 2
57 7 38 6 59 -3 77 -14 29 -18 91 -6 91 4 0 7 26 7 57 0 31 -3 53 -7 50 -3 -4
-11 -3 -17 2 -13 11 -66 3 -66 -10 0 -5 -6 -6 -14 -3 -7 3 -20 -1 -27 -8 -12
-11 -40 -15 -73 -9 -5 0 -3 8 4 16 10 13 11 18 1 28 -17 17 -61 -38 -61 -76 0
-20 -12 -39 -42 -67 -38 -35 -49 -40 -93 -40 -45 0 -86 16 -105 40 -3 4 -15
12 -26 18 -18 10 -23 23 -27 79 -2 38 -8 79 -12 93 -4 14 -7 34 -6 45 1 11 3
61 6 110 2 50 5 91 6 93 1 1 2 5 4 10 1 4 7 21 14 37 18 43 19 115 3 115 -7 0
-10 5 -7 10 8 13 -8 13 -21 0 -8 -8 -15 -6 -24 5 -14 17 -35 21 -25 5 9 -15
-5 -12 -22 5 -9 10 -13 25 -9 39 8 32 -2 38 -30 19 -13 -8 -24 -12 -24 -9 0 4
-13 0 -30 -9 -36 -19 -40 -19 -40 1 0 9 -5 12 -11 8 -12 -7 -11 1 6 66 3 14 9
47 12 74 3 28 11 59 18 70 20 32 28 66 16 66 -6 0 -11 -12 -11 -26 0 -22 -2
-25 -15 -14 -12 10 -15 9 -15 -6 0 -17 -1 -17 -14 2 -8 11 -16 34 -18 50 -2
16 -7 33 -13 37 -6 6 -6 10 3 14 6 2 12 12 12 20 0 12 -3 13 -15 3 -19 -16
-35 -5 -35 25 0 12 -7 25 -15 29 -8 3 -15 15 -15 26 0 11 -9 29 -20 40 -25 25
-25 46 -1 129 11 36 25 91 32 121 6 30 22 87 34 126 13 39 31 111 40 160 9 49
28 138 42 198 22 94 27 150 21 241 -1 6 2 20 6 33 5 13 3 22 -3 22 -6 0 -11 5
-11 11 0 5 3 8 8 6 4 -3 8 23 8 57 1 34 6 71 12 82 11 20 13 58 11 184 -1 53
4 74 25 113 15 26 24 47 20 47 -4 0 -1 7 6 15 11 13 29 113 35 200 1 22 3 47
4 57 0 9 15 29 31 45 17 15 30 33 30 39 0 7 11 19 24 28 14 8 27 25 31 36 5
16 10 18 24 11 27 -15 61 -2 61 23 0 24 -65 126 -81 126 -6 0 -8 -4 -5 -9 3
-5 -1 -14 -9 -21 -17 -14 -20 -50 -5 -50 15 0 7 -43 -10 -57 -20 -16 -31 -16
-27 0 1 7 -7 11 -18 10 -11 -1 -46 -4 -78 -8 -46 -4 -58 -3 -54 7 3 7 11 30
18 51 7 21 21 42 30 48 10 5 21 25 25 44 3 19 11 35 16 35 6 0 8 7 4 15 -3 8
-1 15 4 15 10 0 64 94 60 106 -1 4 4 11 12 15 9 6 6 9 -12 10 -44 3 -74 -2
-98 -17 -25 -16 -129 -27 -137 -14 -7 12 -56 -1 -62 -16 -3 -8 -9 -11 -14 -8
-5 3 -9 0 -9 -6 0 -10 -36 -5 -49 6 -7 6 10 54 19 54 8 0 67 24 145 60 11 5
47 19 80 31 33 12 83 37 110 54 51 33 164 63 187 49 6 -4 8 -3 4 4 -3 6 -1 14
5 18 9 5 10 -3 6 -29 -3 -21 -3 -37 -1 -37 3 0 32 26 65 57 69 65 68 68 23
-79 -77 -252 -129 -531 -100 -541 8 -3 7 -9 -3 -20 -12 -16 -22 -108 -22 -221
0 -22 -3 -45 -7 -50 -4 -6 -7 -47 -8 -91 -1 -44 -4 -110 -8 -147 -4 -46 -2
-79 7 -100 7 -18 12 -62 12 -98 -1 -36 3 -68 8 -71 5 -3 9 -60 9 -125 1 -66 7
-146 15 -178 7 -32 11 -67 8 -76 -3 -10 -1 -37 5 -61 15 -58 27 -116 34 -160
3 -20 21 -69 39 -110 58 -128 61 -134 59 -141 -1 -5 2 -8 8 -8 5 0 10 -5 10
-12 0 -10 69 -158 145 -308 12 -25 26 -56 30 -70 4 -14 14 -33 23 -42 8 -10
12 -18 8 -18 -4 0 4 -20 18 -44 13 -24 22 -48 18 -52 -4 -4 -2 -4 5 0 8 4 15
-3 19 -21 4 -15 18 -39 30 -52 13 -13 21 -27 18 -32 -3 -5 8 -23 25 -41 16
-17 32 -44 35 -58 5 -27 58 -114 77 -125 5 -4 9 -13 9 -20 0 -18 77 -131 104
-153 43 -35 99 -115 153 -219 50 -98 143 -239 143 -218 0 14 41 -28 57 -59 9
-17 21 -50 27 -75 8 -34 18 -49 38 -59 15 -7 53 -43 85 -81 55 -63 139 -142
286 -269 80 -69 342 -244 477 -318 371 -204 748 -342 1115 -408 168 -30 253
-38 875 -79 373 -24 572 -10 740 51 30 11 136 32 235 46 209 30 327 61 561
151 507 194 966 485 1365 865 141 134 147 138 152 112 4 -15 24 -47 45 -71 40
-43 132 -190 132 -209 0 -5 7 -15 15 -22 13 -11 15 -8 16 16 1 16 3 41 5 57 1
15 -2 27 -9 27 -8 0 -8 3 0 11 8 8 8 23 -2 55 -7 24 -11 53 -8 63 3 10 0 22
-6 25 -8 5 -8 13 0 28 7 13 7 23 1 27 -5 3 -9 24 -9 46 0 22 -4 49 -8 59 -6
13 -5 17 2 13 7 -4 5 13 -5 42 -11 37 -13 56 -5 73 9 20 12 16 33 -42 12 -36
31 -89 41 -118 11 -28 21 -75 24 -103 3 -28 8 -55 11 -61 3 -5 10 -55 15 -111
8 -104 15 -174 24 -237 3 -19 7 -73 11 -120 3 -47 14 -125 25 -175 11 -49 27
-126 35 -170 17 -85 60 -191 88 -214 10 -8 31 -41 48 -74 27 -55 71 -107 88
-107 4 0 11 -12 14 -26 8 -32 66 -134 66 -117 0 7 -13 55 -30 105 -24 77 -27
95 -16 106 11 11 10 23 -6 69 -10 31 -18 62 -18 70 0 7 -4 13 -9 13 -5 0 -14
14 -20 31 -13 39 -14 52 -2 45 11 -7 22 46 12 59 -5 6 -9 33 -9 60 -2 58 -5
75 -15 93 -5 7 -4 12 2 12 6 0 11 12 10 28 0 24 -1 25 -9 7 -5 -11 -9 -15 -9
-8 -1 6 -10 9 -20 6 -16 -4 -22 3 -32 35 -6 22 -22 51 -35 65 -12 14 -20 27
-17 30 3 3 -5 27 -17 52 -21 44 -37 94 -45 142 -2 12 -6 26 -9 32 -8 13 -48
158 -51 186 -1 11 -5 27 -8 35 -3 8 -8 26 -12 40 -4 14 -19 71 -34 128 -15 56
-25 102 -23 102 3 0 14 -7 24 -17 10 -9 18 -11 18 -5 0 6 -6 12 -12 15 -7 2
-10 7 -6 11 3 4 19 -1 34 -11 27 -18 28 -17 22 5 -4 12 -3 22 2 22 4 0 10 9
13 19 3 14 1 18 -10 14 -14 -5 -14 -3 0 18 8 13 14 38 12 54 -2 17 -5 53 -6
80 0 28 -5 65 -11 83 -6 20 -6 38 -1 45 5 7 10 25 11 42 1 16 7 34 12 39 6 6
10 20 10 33 0 13 5 23 10 23 6 0 10 7 10 16 0 9 14 39 30 66 17 26 30 50 30
52 0 2 15 28 34 56 19 28 37 66 40 83 3 18 20 46 36 64 17 18 30 38 30 46 0 8
7 20 15 27 8 7 15 21 15 31 0 9 7 24 15 33 8 8 15 22 15 30 0 9 9 21 20 28 11
7 20 20 20 28 0 8 7 33 15 55 8 22 14 55 15 73 0 17 4 32 9 32 4 0 11 23 14
51 4 29 13 59 20 68 22 25 70 187 65 215 -3 14 -1 27 5 29 17 5 11 304 -6 352
-15 39 -14 41 13 75 17 22 30 54 35 85 4 27 13 62 21 77 8 15 16 67 18 120 2
53 10 108 19 128 38 89 48 188 33 325 -4 33 -9 74 -10 92 -3 21 1 34 11 37 11
4 12 10 5 19 -12 16 -21 176 -10 179 5 2 0 12 -10 23 -20 22 -39 90 -21 80 5
-4 1 10 -10 31 -15 28 -18 41 -9 51 7 9 7 13 -1 13 -6 0 -11 7 -11 15 0 8 -5
15 -11 15 -6 0 -9 9 -6 20 3 11 1 23 -4 26 -5 3 -7 10 -4 15 4 5 0 12 -8 15
-9 3 -12 14 -9 30 2 14 0 35 -6 47 -6 12 -15 36 -20 52 -5 17 -15 29 -21 27
-7 -1 -11 3 -10 10 3 26 -1 39 -11 33 -6 -3 -10 3 -10 15 0 33 -26 74 -64 104
-20 15 -36 24 -36 21 0 -3 -9 -1 -21 5 -16 9 -18 14 -8 26 6 8 8 14 3 14 -5 0
-1 7 9 14 12 10 15 16 7 21 -8 5 -8 11 -1 19 8 9 5 18 -9 31 -19 17 -19 19 -2
32 16 13 15 14 -5 10 -15 -3 -20 -1 -16 9 2 7 11 10 19 7 15 -6 17 8 8 44 -4
13 -10 21 -14 18 -5 -3 -12 9 -15 27 -7 30 -23 66 -35 78 -12 12 -30 51 -30
65 0 8 -5 15 -11 15 -5 0 -8 4 -5 9 3 5 -1 21 -9 37 -25 52 -38 89 -42 117 -1
16 -10 35 -18 43 -16 16 -17 21 -19 112 -1 66 -48 168 -119 262 -70 92 -85
113 -114 160 -53 86 -138 195 -199 256 -33 33 -47 41 -68 37 -14 -3 -26 -9
-26 -13 0 -5 -33 -26 -74 -48 -52 -28 -81 -38 -100 -35 -17 4 -34 -1 -46 -12
-11 -10 -20 -15 -20 -11 0 8 -60 -22 -78 -40 -7 -8 -18 -14 -24 -14 -5 0 -22
-8 -36 -18 -15 -10 -55 -29 -89 -42 -34 -13 -61 -29 -60 -35 1 -5 -10 -10 -25
-10 -16 1 -28 -3 -28 -8 0 -5 -7 -7 -15 -3 -8 3 -15 1 -15 -4 0 -6 -3 -9 -7
-8 -13 3 -117 -24 -129 -34 -7 -5 -27 -11 -45 -13 -19 -3 -63 -14 -97 -24 -35
-11 -70 -17 -78 -14 -8 3 -14 0 -14 -7 0 -6 -4 -9 -8 -6 -12 7 -92 -15 -92
-25 0 -5 -3 -8 -7 -7 -5 1 -26 -4 -49 -10 -23 -7 -61 -14 -85 -17 -98 -11
-113 -18 -114 -50 0 -21 -5 -30 -17 -30 -9 0 -20 -4 -24 -8 -4 -4 -2 -7 4 -7
7 0 12 -8 12 -17 0 -15 -2 -14 -15 3 -8 10 -15 27 -15 37 0 31 -46 39 -124 23
-39 -8 -83 -19 -97 -25 -15 -5 -36 -7 -47 -4 -11 2 -29 0 -39 -6 -14 -7 -23
-7 -30 0 -8 8 -13 7 -17 0 -4 -6 -16 -11 -27 -11 -11 0 -30 -5 -42 -12 -35
-18 -176 -28 -277 -19 -52 5 -237 -6 -251 -15 -14 -8 -113 -15 -256 -17 -51
-1 -93 -5 -93 -9 0 -4 -13 -5 -30 -1 -16 3 -30 2 -30 -3 0 -5 -46 -8 -102 -7
-267 4 -293 3 -325 -15 -24 -13 -66 -16 -77 -5 -4 4 -26 8 -49 9 -23 1 -74 9
-113 17 -39 9 -120 16 -180 16 -60 1 -122 4 -138 6 -15 3 -34 1 -41 -5 -10 -8
-20 -8 -32 -1 -11 5 -37 12 -59 15 -21 3 -63 10 -93 15 -34 7 -59 7 -66 1 -12
-10 -46 -4 -85 17 -14 7 -35 13 -46 13 -12 0 -44 6 -70 14 -124 36 -163 44
-219 46 -33 1 -78 2 -100 3 -30 2 -42 -3 -50 -18 -5 -11 -16 -20 -22 -19 -7 1
-19 2 -26 3 -7 0 -17 11 -22 24 -11 24 -67 47 -125 51 -19 2 -54 8 -78 15 -23
6 -47 9 -52 6 -6 -3 -10 5 -10 18 0 24 -34 45 -45 27 -6 -9 -53 -1 -61 11 -3
5 -16 9 -30 9 -14 0 -23 -4 -20 -9 4 -5 -11 -1 -33 9 -38 19 -222 90 -244 95
-7 1 -29 9 -49 19 -21 9 -48 16 -61 16 -29 0 -87 19 -87 29 0 4 -8 7 -17 8
-38 3 -73 23 -73 41 0 15 -6 18 -28 14 -23 -3 -30 1 -40 23 -8 17 -18 25 -27
21 -8 -3 -15 -1 -15 5 0 6 -4 8 -9 5 -5 -4 -12 0 -14 6 -4 10 -6 10 -6 -1 -1
-11 -5 -10 -25 2 -12 9 -39 19 -60 22 -20 4 -36 10 -36 14 0 4 -16 13 -36 20
-24 9 -34 17 -30 27 3 9 1 12 -5 9 -6 -4 -18 0 -27 8 -36 33 -57 17 -177 -128
-111 -135 -170 -218 -200 -277 -20 -41 -22 -49 -9 -44 15 6 15 4 2 -16 -8 -13
-14 -31 -12 -40 1 -10 -1 -16 -5 -15 -4 1 -30 -23 -58 -53 -50 -55 -96 -127
-188 -292 -27 -49 -52 -88 -56 -88 -13 0 -20 33 -8 44 9 8 10 7 4 -3 -5 -9 -4
-12 3 -7 23 14 -1 70 -28 63 -14 -4 -23 6 -39 42 -24 54 -62 85 -96 79 -14 -3
-36 3 -52 13 -15 11 -24 19 -18 19 5 0 -5 8 -22 18 -18 9 -45 34 -62 55 -32
41 -69 72 -112 97 -40 22 -98 70 -143 118 -23 23 -62 57 -88 75 -26 17 -88 68
-139 111 -95 82 -94 82 -234 107 -33 5 -73 17 -89 25 -16 8 -37 14 -47 14 -10
0 -20 4 -23 9 -13 20 -194 91 -233 91 -7 0 -41 9 -74 20 -33 12 -113 27 -177
35 -64 8 -130 21 -147 28 -68 30 -131 62 -155 78 -40 26 -219 119 -230 119
-16 0 -250 95 -292 118 -21 12 -54 33 -75 46 -21 14 -74 40 -118 57 -77 31
-197 91 -222 111 -7 5 -27 17 -45 27 -18 9 -76 41 -128 71 -52 29 -138 73
-190 97 -141 66 -348 172 -389 198 -20 12 -97 58 -171 101 -185 107 -258 157
-516 360 -71 55 -137 101 -146 101 -11 0 -22 -13 -28 -32z m503 -427 c28 -24
58 -50 67 -58 8 -8 82 -57 163 -109 82 -52 158 -106 170 -119 48 -54 73 -75
103 -88 18 -7 45 -24 60 -37 32 -26 132 -75 234 -113 36 -14 82 -36 102 -49
21 -14 40 -25 44 -25 4 0 111 -51 238 -114 127 -63 305 -148 396 -189 288
-131 305 -139 312 -151 13 -19 9 -56 -6 -62 -12 -5 -98 27 -191 71 -16 8 -52
21 -80 30 -58 18 -99 37 -330 150 -241 118 -388 185 -405 185 -5 0 -10 5 -10
10 0 6 -8 14 -17 17 -10 4 -43 21 -73 38 -58 32 -123 55 -159 55 -11 0 -29 8
-39 18 -43 43 -91 72 -136 82 -27 6 -62 22 -78 35 -25 21 -40 25 -98 25 -92 0
-110 15 -114 95 -3 50 -18 114 -28 115 -2 1 -48 5 -102 9 -86 7 -102 11 -118
31 -17 21 -16 46 3 35 5 -3 6 0 3 8 -3 8 2 17 11 21 14 5 16 15 10 66 -9 74
-1 75 68 18z m4396 -1607 c9 -16 7 -18 -17 -18 -15 0 -21 2 -14 4 6 3 12 11
12 19 0 19 7 18 19 -5z m1681 -115 c0 -3 -4 -8 -10 -11 -5 -3 -10 -1 -10 4 0
6 5 11 10 11 6 0 10 -2 10 -4z m-560 -599 c0 -5 -4 -5 -10 -2 -5 3 -10 14 -10
23 0 15 2 15 10 2 5 -8 10 -19 10 -23z m-1975 -38 c11 -17 0 -20 -21 -4 -17
13 -17 14 -2 15 9 0 20 -5 23 -11z m-91 -14 c3 -8 1 -15 -4 -15 -6 0 -10 7
-10 15 0 8 2 15 4 15 2 0 6 -7 10 -15z m7423 -111 c-3 -3 -12 -4 -19 -1 -8 3
-5 6 6 6 11 1 17 -2 13 -5z m380 -186 c-3 -7 -5 -2 -5 12 0 14 2 19 5 13 2 -7
2 -19 0 -25z m-8062 -99 c-4 -5 -12 -9 -18 -8 -9 0 -8 2 1 6 6 2 9 10 6 15 -4
7 -2 8 5 4 6 -4 9 -12 6 -17z m8105 -85 c0 -8 -4 -14 -10 -14 -5 0 -10 9 -10
21 0 11 5 17 10 14 6 -3 10 -13 10 -21z m-2780 -464 c0 -5 -2 -10 -4 -10 -3 0
-8 5 -11 10 -3 6 -1 10 4 10 6 0 11 -4 11 -10z m80 -24 c0 -3 -4 -8 -10 -11
-5 -3 -10 -1 -10 4 0 6 5 11 10 11 6 0 10 -2 10 -4z m-75 -26 c-3 -5 -10 -10
-16 -10 -5 0 -9 5 -9 10 0 6 7 10 16 10 8 0 12 -4 9 -10z m65 -22 c0 -4 -5 -8
-11 -8 -5 0 -7 -4 -4 -10 3 -5 1 -10 -4 -10 -6 0 -11 7 -11 16 0 9 -5 12 -12
8 -6 -4 -8 -3 -5 2 7 12 47 13 47 2z m-87 -33 c-3 -9 -8 -14 -10 -11 -3 3 -2
9 2 15 9 16 15 13 8 -4z m-5614 -34 c9 -6 12 -18 7 -37 -6 -27 -5 -28 9 -10 8
10 12 23 9 27 -3 5 7 14 21 19 34 13 35 13 28 -6 -3 -8 -11 -13 -18 -10 -8 3
-15 -7 -19 -25 -3 -18 -12 -29 -22 -29 -9 0 -18 -9 -21 -19 -3 -11 -11 -17
-18 -15 -7 3 -15 -4 -18 -16 -3 -11 -9 -19 -14 -18 -13 4 -53 -26 -53 -39 0
-7 -7 -13 -15 -13 -9 0 -20 -10 -25 -22 -5 -13 -9 -19 -9 -15 -2 14 -41 -13
-41 -28 0 -8 -7 -15 -15 -15 -9 0 -20 -12 -25 -26 -7 -18 -16 -25 -28 -22 -12
4 -17 -2 -18 -19 -1 -13 -11 -32 -23 -42 -12 -10 -21 -23 -21 -30 0 -6 -7 -11
-15 -11 -9 0 -18 -6 -21 -14 -3 -8 -11 -13 -17 -10 -7 2 -22 -12 -35 -31 -12
-19 -28 -35 -35 -35 -8 0 -7 4 3 10 8 5 12 10 8 10 -3 0 -13 3 -21 6 -16 6
-18 -11 -4 -33 6 -9 0 -13 -19 -13 -21 0 -25 -4 -21 -20 3 -11 1 -18 -4 -14
-5 3 -9 -5 -9 -17 0 -22 0 -22 -20 -4 -15 14 -19 15 -15 4 3 -9 -1 -28 -9 -43
-14 -28 -14 -28 -26 -6 -10 18 -9 21 7 18 15 -2 18 4 19 37 2 50 25 105 59
136 26 24 95 115 95 124 0 6 41 55 78 92 12 13 22 28 22 33 0 6 6 10 14 10 8
0 23 10 33 23 10 12 41 38 68 57 28 19 52 38 53 43 2 4 8 5 13 1 5 -3 9 1 9 8
1 17 59 56 85 57 11 0 26 -3 34 -8z m83 -28 c-6 -3 -10 -8 -7 -13 3 -4 -4 -10
-15 -13 -11 -3 -20 -3 -20 -1 0 9 44 43 49 38 3 -4 0 -9 -7 -11z m5733 -83 c3
-5 2 -10 -4 -10 -6 0 -8 -8 -4 -17 5 -15 3 -14 -10 2 -9 11 -17 23 -17 28 0
11 28 9 35 -3z m35 -104 c0 -11 -19 -15 -25 -6 -3 5 1 10 9 10 9 0 16 -2 16
-4z m-168 -107 c-15 -6 -30 -5 -40 1 -13 7 -8 9 23 9 35 0 37 -1 17 -10z
m-5305 -74 c-3 -5 -13 -43 -23 -82 -10 -40 -22 -73 -27 -73 -5 0 -6 -9 -2 -19
3 -11 1 -22 -5 -26 -6 -3 -8 -10 -5 -15 3 -5 1 -11 -5 -15 -5 -3 -10 -11 -10
-16 0 -6 5 -7 10 -4 6 3 10 -1 10 -9 0 -9 -5 -16 -11 -16 -6 0 -8 -9 -4 -20 4
-12 2 -20 -5 -20 -6 0 -8 -5 -4 -12 6 -9 3 -9 -9 0 -16 14 -37 9 -37 -9 0 -6
5 -7 10 -4 12 7 12 3 4 -19 -3 -9 -10 -16 -15 -16 -4 0 -6 6 -3 14 5 13 1 14
-35 7 -2 -1 2 -8 9 -16 17 -21 6 -31 -32 -30 -21 1 -39 -6 -50 -18 -18 -20
-18 -20 -18 3 0 23 0 23 -16 4 -8 -10 -13 -13 -9 -6 3 6 1 12 -4 12 -10 0 -15
-17 -14 -48 1 -7 -4 -11 -10 -9 -7 2 -24 -11 -39 -30 -17 -22 -28 -29 -31 -21
-4 9 -6 8 -6 -3 -1 -19 -54 -46 -59 -30 -2 6 -8 11 -14 11 -10 0 -8 -47 2 -65
10 -16 6 -38 -7 -42 -15 -5 -17 13 -3 22 9 6 -6 43 -23 56 -4 3 5 19 20 36 16
17 27 35 26 40 -2 6 3 16 11 22 8 7 12 19 9 28 -3 8 -1 18 6 22 6 4 14 21 17
37 3 16 9 31 15 32 5 2 7 8 3 13 -3 5 3 9 12 9 10 0 15 3 11 6 -8 8 21 64 33
64 5 0 11 9 15 19 6 21 171 191 185 191 4 0 10 7 14 15 3 8 12 15 19 15 8 0
20 6 26 14 13 15 73 17 68 1z m3850 -1 c-3 -3 -12 -4 -19 -1 -8 3 -5 6 6 6 11
1 17 -2 13 -5z m-2377 -18 c0 -3 -4 -8 -10 -11 -5 -3 -10 -1 -10 4 0 6 5 11
10 11 6 0 10 -2 10 -4z m2621 -37 c7 -14 8 -24 1 -31 -6 -6 -8 -18 -5 -27 5
-13 3 -14 -7 -4 -11 10 -11 15 0 28 10 12 10 18 0 30 -7 8 -17 12 -23 8 -6 -3
-7 -1 -3 5 11 18 24 14 37 -9z m-30 -32 c-10 -9 -11 -8 -5 6 3 10 9 15 12 12
3 -3 0 -11 -7 -18z m-267 5 c3 -5 -1 -9 -9 -9 -8 0 -12 4 -9 9 3 4 7 8 9 8 2
0 6 -4 9 -8z m137 -35 c-10 -9 -11 -8 -5 6 3 10 9 15 12 12 3 -3 0 -11 -7 -18z
m-4906 -146 c-6 -11 -45 -21 -45 -12 0 12 8 17 30 18 11 1 18 -2 15 -6z m975
-215 c0 -32 -13 -106 -19 -106 -8 0 -12 79 -5 103 6 20 24 23 24 3z m-435 -95
c-3 -5 2 -12 10 -14 12 -4 12 -5 -1 -3 -19 1 -32 26 -14 26 6 0 9 -4 5 -9z
m-50 -30 c3 -5 0 -13 -6 -17 -8 -5 -9 -3 -4 6 5 8 4 11 -2 7 -6 -4 -9 -18 -8
-31 2 -18 -1 -23 -11 -19 -8 3 -12 14 -10 26 3 12 5 25 5 30 1 10 29 9 36 -2z
m419 -83 c-8 -56 -18 -78 -35 -78 -15 0 -10 36 9 69 20 36 31 40 26 9z m4696
-278 c-8 -5 -22 -9 -30 -9 -10 0 -8 3 5 9 27 12 43 12 25 0z m2714 -106 c3 -9
3 -21 -1 -27 -8 -12 -10 -18 -12 -39 -2 -20 -30 25 -31 49 0 19 10 30 31 32 4
1 10 -6 13 -15z m68 -16 c-16 -16 -15 -28 3 -28 8 0 15 -9 15 -19 0 -11 5 -23
10 -26 6 -3 10 -11 10 -16 0 -6 -4 -8 -9 -5 -4 3 -21 2 -38 -3 -20 -6 -35 -4
-47 4 -17 13 -16 14 3 17 20 3 20 5 6 32 -13 25 -13 27 0 16 12 -10 15 -7 21
14 3 14 13 26 22 26 12 0 13 -3 4 -12z m-7582 -80 c0 -19 -2 -20 -10 -8 -13
19 -13 30 0 30 6 0 10 -10 10 -22z m7853 -50 c-3 -6 -12 -3 -20 5 -9 9 -12 20
-8 28 6 9 11 8 21 -6 7 -10 11 -22 7 -27z m-5788 -128 c3 -5 2 -10 -4 -10 -5
0 -13 5 -16 10 -3 6 -2 10 4 10 5 0 13 -4 16 -10z m-11 -139 c-7 -8 -35 9 -29
19 4 6 11 5 20 -3 7 -6 11 -14 9 -16z m59 -16 c-3 -9 -8 -14 -10 -11 -3 3 -2
9 2 15 9 16 15 13 8 -4z m-83 1 c0 -2 -7 -9 -15 -16 -13 -11 -14 -10 -9 4 5
14 24 23 24 12z m35 -26 c3 -5 2 -10 -4 -10 -5 0 -13 5 -16 10 -3 6 -2 10 4
10 5 0 13 -4 16 -10z m38 -45 c-3 -9 -8 -14 -10 -11 -3 3 -2 9 2 15 9 16 15
13 8 -4z m3632 -25 c3 -6 -1 -7 -9 -4 -18 7 -21 14 -7 14 6 0 13 -4 16 -10z
m1164 7 c-2 -1 -13 -9 -24 -17 -19 -14 -19 -14 -6 3 7 9 18 17 24 17 6 0 8 -1
6 -3z m-1089 -81 c0 -3 -4 -8 -10 -11 -5 -3 -10 -1 -10 4 0 6 5 11 10 11 6 0
10 -2 10 -4z m30 -16 c0 -5 -5 -10 -11 -10 -5 0 -7 5 -4 10 3 6 8 10 11 10 2
0 4 -4 4 -10z m986 -107 c-10 -11 -19 -7 -22 10 -2 15 0 16 12 6 8 -6 12 -14
10 -16z"/>
<path d="M4536 9675 c4 -8 8 -15 10 -15 2 0 4 7 4 15 0 8 -4 15 -10 15 -5 0
-7 -7 -4 -15z"/>
<path d="M4700 8931 c0 -5 5 -13 10 -16 6 -3 10 -2 10 4 0 5 -4 13 -10 16 -5
3 -10 2 -10 -4z"/>
<path d="M4735 8920 c3 -5 18 -10 32 -10 32 0 28 5 -10 14 -19 4 -26 3 -22 -4z"/>
<path d="M1073 13546 c4 -10 7 -22 7 -27 0 -5 4 -9 9 -9 12 0 2 38 -12 47 -7
4 -8 0 -4 -11z"/>
<path d="M9397 13334 c-3 -3 -117 -7 -254 -9 -245 -4 -259 -5 -413 -46 -25 -6
-55 -13 -67 -14 -11 -2 -45 -10 -75 -18 -29 -8 -80 -18 -113 -22 -67 -7 -131
-20 -167 -34 -13 -4 -50 -16 -83 -26 -33 -10 -89 -28 -125 -40 -36 -13 -67
-23 -70 -23 -29 -2 -147 -40 -165 -53 -5 -4 -34 -6 -62 -5 -29 1 -53 -2 -53
-6 0 -5 -3 -7 -7 -6 -5 0 -17 -3 -28 -7 -11 -4 -42 -17 -70 -27 -27 -11 -75
-33 -105 -50 -30 -16 -102 -55 -160 -86 -114 -60 -272 -160 -360 -226 -152
-114 -201 -160 -162 -149 11 3 31 -7 50 -25 17 -16 33 -27 36 -25 5 6 46 -16
64 -34 7 -7 22 -13 33 -13 10 0 19 -3 19 -7 0 -9 49 -33 67 -33 7 0 13 -5 13
-10 0 -6 6 -10 13 -8 6 1 25 -1 40 -5 17 -5 34 -4 41 2 15 12 95 -22 109 -46
7 -11 12 -11 22 -3 10 8 16 7 23 -6 10 -18 14 -20 70 -30 17 -4 32 -10 32 -14
0 -5 9 -6 20 -3 12 3 20 0 20 -8 0 -7 3 -9 7 -6 3 4 11 3 17 -2 10 -8 48 -16
126 -26 14 -2 44 -7 67 -11 34 -5 44 -3 49 9 7 19 55 7 98 -24 31 -24 121 -34
143 -17 18 14 133 15 133 1 0 -6 24 -14 53 -18 28 -4 55 -13 59 -19 10 -16 57
-15 51 1 -4 9 0 11 11 7 9 -3 16 -9 16 -14 0 -4 14 -7 32 -8 17 0 34 -5 37
-10 8 -13 36 -20 98 -27 43 -5 53 -3 62 12 6 10 11 13 11 7 0 -7 19 -10 50 -8
28 2 50 -1 50 -6 0 -14 64 -12 78 2 10 10 17 10 33 0 29 -18 132 -26 123 -9
-4 6 2 4 13 -6 18 -16 35 -18 105 -15 45 2 91 8 101 12 12 6 17 5 15 -4 -3
-12 64 -24 112 -20 53 3 122 -3 167 -16 41 -12 88 -14 223 -10 94 3 175 8 180
11 5 3 11 2 14 -3 3 -5 20 -7 38 -5 18 2 92 3 165 3 72 -1 134 3 137 9 3 5 46
12 96 16 49 4 90 11 90 16 0 5 10 8 23 8 40 -3 282 41 285 52 11 29 36 39 102
39 38 0 71 -4 75 -9 5 -9 17 -11 78 -11 16 -1 56 8 90 19 34 11 94 27 132 35
39 9 71 21 73 26 4 12 60 38 82 38 8 1 43 2 78 3 l63 2 -4 33 c-4 26 -2 31 11
27 9 -4 13 -2 9 4 -8 12 67 43 104 43 17 0 30 -8 39 -25 16 -30 43 -32 77 -5
14 11 32 20 39 20 8 0 14 5 14 10 0 6 12 10 26 10 14 0 23 4 19 9 -3 6 3 15
14 21 13 7 22 7 26 0 12 -20 125 17 125 40 0 6 -12 10 -27 11 -23 0 -19 4 24
22 29 12 53 24 53 27 0 16 -67 82 -122 120 -157 109 -222 150 -236 150 -8 0
-30 14 -49 30 -19 17 -58 42 -86 56 -51 24 -206 70 -263 78 -42 5 -57 11 -177
72 -59 30 -116 54 -127 54 -11 0 -34 6 -52 14 -18 8 -78 24 -133 36 -55 13
-120 31 -144 42 -24 10 -54 19 -67 20 -13 1 -24 6 -24 9 0 4 -19 12 -42 18
-126 30 -177 44 -247 67 -59 20 -101 27 -191 30 -141 4 -231 11 -335 24 -44 5
-116 12 -160 15 -44 2 -99 6 -121 9 -23 3 -44 3 -47 0z m2513 -904 c0 -5 -5
-10 -11 -10 -5 0 -7 5 -4 10 3 6 8 10 11 10 2 0 4 -4 4 -10z m-3410 -350 c0
-5 -5 -10 -11 -10 -5 0 -7 5 -4 10 3 6 8 10 11 10 2 0 4 -4 4 -10z"/>
<path d="M17579 13193 c-14 -37 -14 -91 1 -128 8 -20 8 -31 1 -33 -6 -2 -11
-9 -11 -17 0 -26 -33 -38 -121 -46 -50 -4 -96 -12 -101 -17 -5 -5 -14 -45 -19
-88 -12 -100 -26 -114 -114 -114 -68 0 -81 -8 -94 -57 -4 -15 -16 -33 -27 -38
-10 -6 -31 -18 -46 -28 -40 -28 -126 -48 -193 -47 -90 1 -161 -10 -182 -29
-19 -18 -121 -71 -136 -71 -5 0 -21 -9 -36 -20 -15 -10 -39 -21 -53 -24 -14
-2 -40 -12 -57 -21 -17 -8 -36 -13 -41 -10 -6 3 -10 -1 -10 -10 0 -11 -5 -15
-15 -11 -8 3 -15 1 -15 -4 0 -12 -206 -113 -240 -118 -14 -1 -36 -11 -50 -21
-29 -21 -112 -65 -120 -63 -12 3 -58 -13 -88 -30 -18 -10 -41 -20 -50 -21 -9
-2 -30 -10 -47 -19 -16 -8 -36 -13 -42 -11 -7 3 -13 0 -13 -6 0 -6 -7 -8 -15
-5 -8 4 -15 9 -15 13 0 9 51 31 72 31 10 0 18 4 18 8 0 11 89 54 99 47 5 -2
16 4 26 15 10 11 23 20 28 20 6 0 51 20 101 44 101 49 183 86 189 86 3 0 22 8
43 17 22 9 41 17 44 18 9 1 55 28 60 34 12 15 324 161 343 161 7 0 20 9 30 20
9 11 23 20 30 20 8 0 45 30 83 66 38 36 91 80 117 98 27 18 66 55 86 82 21 27
43 48 49 47 45 -10 291 127 364 202 18 19 38 35 44 35 7 0 14 8 18 18 3 9 9
23 12 30 10 22 -44 13 -104 -17 -31 -16 -97 -54 -147 -85 -162 -100 -209 -123
-305 -155 -52 -17 -104 -35 -115 -40 -11 -5 -64 -30 -118 -55 -54 -25 -100
-46 -102 -46 -5 0 -183 -84 -390 -185 -93 -45 -201 -97 -240 -115 -38 -18
-113 -54 -165 -80 -53 -26 -110 -51 -128 -55 -17 -3 -34 -10 -37 -15 -3 -5
-29 -20 -58 -34 -52 -26 -88 -46 -97 -57 -3 -3 -33 -22 -67 -42 -61 -37 -110
-52 -276 -82 -48 -8 -96 -20 -105 -25 -41 -23 -373 -130 -556 -180 l-118 -31
-122 -103 c-66 -56 -139 -115 -161 -129 -22 -15 -49 -40 -58 -57 -10 -16 -22
-30 -27 -30 -5 0 -24 -12 -42 -27 -46 -39 -74 -53 -103 -53 -14 0 -25 -6 -25
-13 0 -18 -99 -108 -137 -123 -17 -8 -34 -18 -38 -24 -3 -5 -21 -10 -38 -10
-22 0 -41 -10 -61 -30 -16 -17 -47 -35 -69 -41 -51 -14 -85 -35 -92 -60 -4
-10 -13 -19 -22 -19 -9 0 -31 -10 -51 -22 -29 -18 -38 -19 -54 -9 -15 9 -23 9
-34 0 -13 -11 -29 -13 -116 -18 -33 -1 -36 -21 -8 -46 11 -10 20 -23 20 -29 1
-6 24 -22 52 -35 70 -33 208 -164 237 -224 13 -27 32 -52 45 -57 12 -4 30 -20
40 -34 9 -15 21 -24 26 -21 6 4 10 -1 10 -9 0 -9 7 -16 16 -16 36 0 93 -39
179 -124 50 -50 102 -99 114 -109 27 -21 26 -64 -1 -59 -12 2 -18 -4 -18 -17
0 -11 -7 -26 -15 -34 -8 -8 -12 -16 -10 -18 2 -2 -8 -5 -21 -5 -33 -2 -30 9 5
23 25 9 29 15 23 34 -5 18 -7 20 -10 7 -2 -9 -12 -20 -22 -23 -10 -3 -21 -14
-24 -23 -7 -21 -56 -51 -73 -45 -6 2 -10 -4 -9 -13 2 -10 9 -20 16 -22 7 -3
10 0 6 6 -3 5 0 12 7 15 8 3 14 -1 14 -9 0 -8 -4 -14 -9 -14 -4 0 -8 -5 -8
-11 0 -6 7 -9 14 -6 10 4 13 1 9 -9 -4 -10 -9 -12 -18 -4 -6 5 -16 6 -20 2 -5
-4 -5 -1 0 7 6 10 4 12 -6 5 -8 -5 -22 -7 -32 -5 -16 2 -17 -1 -7 -18 6 -12
22 -28 35 -37 14 -9 25 -22 25 -28 0 -18 64 -79 106 -101 22 -11 45 -26 52
-32 7 -7 18 -13 23 -13 13 0 29 -46 34 -99 2 -25 7 -66 10 -91 4 -25 7 -52 7
-60 0 -8 2 -22 5 -30 3 -8 8 -33 10 -55 3 -22 11 -44 19 -48 11 -6 12 -12 5
-21 -12 -14 -4 -44 42 -166 31 -84 40 -130 25 -130 -6 0 -8 -3 -5 -7 4 -3 0
-17 -9 -31 -11 -17 -12 -22 -3 -16 11 6 12 5 2 -7 -10 -12 -9 -20 3 -37 8 -12
12 -22 7 -22 -4 0 -2 -4 6 -9 13 -8 13 -12 1 -26 -11 -14 -11 -18 -1 -25 8 -4
11 -12 8 -17 -7 -11 13 -124 57 -328 3 -11 26 -81 51 -155 33 -94 47 -151 47
-188 0 -37 8 -72 28 -115 16 -34 32 -75 36 -91 7 -28 6 -28 -27 -20 -19 5 -48
9 -66 9 -17 0 -29 3 -26 8 2 4 -1 7 -6 7 -6 0 -11 -7 -11 -16 0 -11 -6 -13
-20 -9 -16 5 -18 2 -14 -17 2 -13 7 -39 10 -59 6 -40 15 -35 -91 -42 -23 -2
-46 3 -53 10 -7 7 -21 13 -30 13 -15 0 -15 -2 -2 -10 8 -5 10 -10 4 -10 -19 0
-25 -30 -9 -46 8 -8 12 -21 9 -29 -4 -9 0 -15 10 -15 19 0 21 -16 4 -24 -10
-5 -10 -7 -1 -12 12 -5 15 -17 28 -109 16 -107 18 -148 6 -141 -6 4 -8 12 -5
18 4 6 2 8 -3 5 -6 -4 -21 2 -33 13 -13 11 -29 20 -37 20 -7 0 -13 5 -13 10 0
6 -7 10 -16 10 -11 0 -14 -6 -9 -22 4 -15 3 -19 -3 -10 -10 15 -38 7 -46 -14
-4 -11 -15 -13 -39 -9 -48 9 -71 -15 -62 -64 9 -47 35 -102 52 -108 7 -3 13
-11 13 -18 0 -7 7 -15 15 -19 8 -3 20 -17 25 -31 6 -15 14 -23 20 -20 5 3 10
-4 10 -15 0 -13 8 -24 20 -27 11 -3 20 -14 20 -24 0 -16 -3 -17 -19 -7 -11 7
-18 15 -16 18 2 3 -3 14 -12 25 -14 19 -14 19 -7 -8 5 -23 3 -29 -15 -34 -37
-9 -22 -72 27 -120 40 -38 49 -70 22 -75 -19 -3 -19 -4 -4 -33 41 -75 47 -90
48 -127 1 -43 -15 -62 -84 -97 -48 -24 -106 -14 -137 25 -31 39 -35 44 -57 84
-33 60 -66 99 -99 117 -32 17 -129 35 -122 23 3 -4 -3 -16 -11 -26 -14 -17
-15 -17 -10 -1 7 21 -12 23 -20 2 -4 -8 -12 -15 -19 -15 -7 0 -16 -7 -19 -16
-3 -8 -10 -13 -15 -10 -8 5 -5 -59 5 -99 10 -39 33 -210 29 -214 -3 -2 -11 2
-19 9 -22 17 -78 -8 -71 -31 4 -11 -2 -18 -15 -22 -11 -3 -20 0 -20 6 0 21
-12 -2 -16 -32 -3 -17 -2 -30 3 -29 4 2 25 -14 46 -35 21 -20 43 -37 48 -37 4
0 13 -9 19 -20 14 -27 -8 -27 -36 -1 -12 10 -35 22 -52 26 -28 6 -32 4 -32
-14 0 -12 -6 -21 -13 -21 -12 0 -13 -28 -3 -98 3 -18 1 -30 -5 -27 -5 4 -9 12
-9 18 -1 38 -80 87 -104 65 -14 -13 -9 -49 8 -60 8 -6 8 -8 -1 -8 -8 0 -8 -7
0 -29 6 -17 15 -27 21 -24 5 4 7 -1 3 -10 -3 -10 -2 -17 3 -17 6 0 10 -7 10
-16 0 -8 5 -12 10 -9 7 4 9 -2 5 -17 -4 -16 -1 -29 9 -37 9 -7 13 -18 9 -24
-3 -6 -1 -7 5 -3 7 4 12 2 12 -5 0 -7 11 -9 33 -6 27 4 36 0 58 -25 26 -31 26
-31 45 -12 10 11 28 38 38 62 11 24 26 47 34 51 9 5 18 33 23 70 5 37 18 73
31 92 l23 30 38 -41 c29 -31 48 -42 72 -43 18 -1 33 -6 32 -12 -1 -5 13 -10
31 -10 45 -1 67 -31 87 -120 19 -85 38 -270 30 -296 -8 -23 -35 -14 -35 11 0
11 -5 22 -11 25 -6 5 -9 -5 -8 -27 5 -68 -1 -119 -12 -112 -8 5 -10 -1 -7 -18
4 -21 1 -24 -19 -20 -13 2 -23 8 -23 13 0 5 -8 9 -17 8 -11 0 -13 -3 -5 -6 20
-8 14 -25 -8 -18 -15 5 -21 0 -26 -19 -3 -14 -11 -26 -16 -26 -6 0 -8 -7 -4
-15 6 -16 -30 -60 -49 -60 -5 0 -9 -8 -9 -18 1 -9 -2 -17 -7 -17 -5 0 -8 -3
-8 -7 1 -5 1 -24 0 -42 -1 -27 -4 -32 -13 -23 -7 7 -26 12 -43 11 -16 0 -24
-3 -17 -6 6 -2 12 -19 11 -36 0 -31 0 -32 -10 -7 -7 18 -12 21 -18 11 -6 -10
-10 -9 -15 4 -3 9 1 23 10 32 12 12 14 28 11 62 -7 62 -17 109 -28 138 -5 14
-6 29 -3 34 3 6 1 15 -4 22 -6 7 -11 17 -12 22 -2 6 -4 15 -6 20 -2 6 -5 24
-7 40 -2 17 -5 2 -6 -32 0 -35 -5 -63 -11 -63 -5 0 -10 5 -10 11 0 5 -4 7 -10
4 -5 -3 -7 0 -4 8 3 8 1 18 -5 22 -6 3 -11 15 -11 25 0 10 -5 20 -11 22 -12 4
-59 112 -59 135 0 23 -19 14 -26 -12 -3 -14 -9 -25 -13 -25 -46 0 -43 -238 5
-482 12 -62 13 -80 3 -96 -10 -17 -10 -24 1 -37 10 -12 17 -56 21 -134 l6
-116 68 -125 c37 -69 93 -172 124 -230 65 -120 95 -167 125 -192 26 -22 43
-23 22 -2 -9 8 -21 25 -28 37 -11 21 -10 21 9 4 25 -22 65 -22 86 1 9 10 21
42 27 72 7 30 22 98 35 150 13 52 26 127 30 165 4 39 16 108 28 155 17 70 22
80 27 56 5 -28 6 -27 28 25 12 30 22 62 22 71 0 10 6 32 14 50 7 18 19 51 26
73 7 22 28 72 46 111 18 38 36 82 39 96 4 15 22 42 41 61 22 21 49 69 75 133
50 123 79 204 79 222 0 25 42 112 51 106 5 -3 19 15 30 40 17 40 18 52 8 88
-17 67 -23 67 -34 3 l-11 -60 -13 106 c-8 59 -11 132 -7 163 3 31 9 82 12 114
5 42 9 52 15 37 4 -11 8 -32 8 -47 1 -36 12 -35 34 2 21 34 32 37 46 13 9 -17
11 -17 30 1 15 14 19 26 14 50 -6 30 -5 30 13 15 10 -9 45 -29 77 -44 55 -26
116 -75 148 -120 44 -64 127 -86 165 -44 17 19 19 40 21 238 2 223 8 297 23
306 5 3 13 -2 18 -11 14 -26 43 27 36 65 -6 29 -3 31 52 58 33 15 61 31 62 36
2 4 9 7 15 7 7 0 31 17 54 38 55 48 59 84 16 138 -69 89 -123 213 -138 323 -9
68 -9 169 0 210 l7 32 25 -27 c23 -25 26 -25 41 -10 15 15 14 19 -6 61 -12 25
-22 49 -22 54 0 5 22 12 49 16 70 9 106 -10 209 -113 111 -111 156 -138 242
-146 36 -3 89 -10 118 -16 88 -16 170 11 240 80 23 23 42 45 43 48 9 58 4 72
-53 133 -32 33 -58 67 -58 74 0 7 -4 15 -8 17 -16 6 -80 103 -87 131 -4 15
-11 27 -15 27 -4 0 -10 10 -13 23 -3 12 -10 38 -16 57 -26 89 -38 149 -32 158
17 28 171 15 298 -27 90 -29 216 -37 264 -17 22 9 57 24 79 33 47 19 106 80
116 119 12 48 -3 131 -37 193 -42 80 -102 124 -259 190 -186 79 -235 117 -290
227 -27 53 -32 73 -32 136 0 40 -4 78 -9 84 -10 13 0 84 12 84 5 0 8 5 6 11
-1 6 4 14 11 16 7 3 11 -1 10 -7 -2 -8 9 -13 32 -13 19 0 37 -3 40 -6 3 -3 30
-15 60 -25 48 -16 131 -51 209 -89 14 -7 74 -12 145 -12 122 0 134 2 241 50
17 7 62 23 100 36 39 12 80 30 93 40 13 10 42 27 65 38 23 11 76 49 117 84
144 121 157 185 40 204 -14 2 -34 5 -45 7 -11 2 -20 4 -20 5 0 3 -32 10 -73
16 -18 2 -36 6 -40 9 -4 2 -54 10 -110 16 -185 20 -289 59 -352 131 -65 75
-142 149 -155 149 -7 0 -24 9 -38 20 -14 11 -33 20 -43 20 -10 0 -36 9 -58 19
-67 32 -226 101 -296 127 -78 31 -142 64 -153 81 -4 7 -14 10 -22 6 -9 -3 -21
0 -29 6 -7 6 -16 8 -19 5 -3 -4 -9 6 -13 21 -12 46 6 51 121 31 95 -16 122
-20 132 -18 7 2 21 -2 31 -7 10 -5 49 -12 88 -16 38 -3 87 -11 109 -17 22 -6
51 -12 65 -12 14 -1 39 -11 56 -23 28 -20 40 -22 95 -17 95 9 168 9 224 0 113
-18 135 -18 135 -5 0 11 2 11 9 0 7 -11 13 -12 23 -4 7 6 57 11 113 11 55 0
127 7 160 15 33 8 83 19 110 23 59 9 50 6 99 28 112 50 336 250 336 300 0 32
-36 44 -110 35 -62 -7 -141 -6 -370 7 -158 9 -250 10 -445 5 -79 -2 -123 1
-155 12 -25 9 -85 29 -134 46 -49 17 -96 31 -103 31 -23 0 -136 56 -159 78
-12 12 -25 18 -28 14 -4 -3 -10 -1 -15 6 -4 7 -34 13 -72 14 -76 2 -94 9 -114
48 -16 30 -20 88 -7 105 4 6 57 10 122 10 63 1 131 6 150 12 95 31 151 44 210
49 36 3 85 11 110 19 158 47 190 56 232 60 60 5 253 61 284 82 13 8 26 14 29
13 12 -3 71 13 84 24 8 6 21 11 30 11 50 1 131 31 178 67 28 22 53 43 55 46 2
4 14 15 28 25 73 51 164 113 178 122 40 24 185 150 277 242 55 54 114 107 130
117 17 10 42 33 54 52 23 34 23 35 5 48 -16 12 -24 11 -59 -7 -22 -12 -42 -24
-45 -28 -17 -19 -80 -48 -93 -43 -14 5 -91 -31 -124 -58 -7 -6 -13 -8 -13 -4
0 4 -26 -7 -57 -23 -32 -17 -71 -33 -88 -37 -16 -4 -42 -15 -57 -25 -32 -23
-33 -23 -53 -3 -11 12 -13 20 -5 29 8 9 6 14 -5 19 -9 3 -15 18 -15 36 0 34
-1 34 -52 19 -45 -12 -67 -48 -61 -99 3 -26 -1 -43 -15 -60 -19 -24 -26 -25
-124 -25 -87 0 -108 -3 -133 -21 -16 -11 -43 -19 -60 -19 -16 1 -60 -4 -97
-10 -37 -7 -69 -10 -72 -8 -2 2 -30 -13 -63 -35 -76 -52 -173 -77 -335 -86
-64 -4 -76 -2 -71 10 3 7 9 11 14 8 5 -3 9 2 9 10 0 15 30 32 203 110 31 14
63 26 69 26 6 0 26 11 43 24 18 14 70 43 116 66 87 42 148 82 229 150 26 21
76 55 111 73 104 55 137 75 218 129 77 51 172 142 196 188 7 14 42 53 77 88
60 59 83 84 210 226 29 32 74 80 100 107 41 42 148 189 148 204 0 3 -41 5 -90
5 -89 0 -91 0 -101 -27z m-3592 -2689 c-3 -3 -12 -4 -19 -1 -8 3 -5 6 6 6 11
1 17 -2 13 -5z m1377 -600 c9 -24 2 -26 -12 -4 -7 11 -8 20 -3 20 5 0 12 -7
15 -16z m-1819 -4145 c-10 -15 -25 -10 -19 6 4 8 10 12 15 9 5 -3 7 -10 4 -15z
m-198 -81 c-3 -8 -6 -5 -6 6 -1 11 2 17 5 13 3 -3 4 -12 1 -19z m26 -81 c3 -8
-1 -14 -8 -14 -7 0 -11 6 -8 14 3 7 6 13 8 13 2 0 5 -6 8 -13z m117 -830 c0
-17 -21 6 -40 43 -29 57 -24 62 10 10 16 -25 30 -49 30 -53z"/>
<path d="M1794 12176 c11 -9 24 -16 30 -16 12 0 7 5 -24 19 -24 11 -24 11 -6
-3z"/>
<path d="M2061 12117 c-14 -36 -14 -37 3 -37 18 0 25 20 16 45 -7 18 -9 18
-19 -8z"/>
<path d="M16077 11063 c-14 -13 -6 -20 18 -15 14 2 22 8 19 13 -6 11 -28 12
-37 2z"/>
<path d="M13356 10558 c3 -5 10 -6 15 -3 13 9 11 12 -6 12 -8 0 -12 -4 -9 -9z"/>
<path d="M5318 10485 c-6 -27 13 -40 31 -22 16 16 14 25 -8 36 -16 9 -20 7
-23 -14z"/>
<path d="M13695 10290 c-3 -5 -1 -10 4 -10 6 0 11 5 11 10 0 6 -2 10 -4 10 -3
0 -8 -4 -11 -10z"/>
<path d="M15616 8449 c19 -21 58 -26 52 -7 -3 7 -19 15 -37 19 -31 6 -31 6
-15 -12z"/>
<path d="M13270 7749 c0 -5 5 -7 10 -4 6 3 10 8 10 11 0 2 -4 4 -10 4 -5 0
-10 -5 -10 -11z"/>
<path d="M13244 7712 c3 -5 1 -12 -6 -14 -8 -3 -9 -6 -1 -11 6 -4 13 0 17 8 3
8 0 17 -6 21 -6 4 -8 3 -4 -4z"/>
<path d="M13220 7631 c0 -14 5 -18 20 -14 24 6 26 19 4 27 -23 9 -24 8 -24
-13z"/>
<path d="M5316 7333 c-16 -42 13 -53 34 -13 7 14 5 19 -10 23 -11 3 -21 -1
-24 -10z"/>
<path d="M4903 6833 c-7 -3 -22 -20 -33 -39 -21 -34 -21 -34 -2 -59 l19 -24
17 44 c19 48 18 84 -1 78z"/>
<path d="M13255 6820 c-3 -5 1 -10 10 -10 9 0 13 5 10 10 -3 6 -8 10 -10 10
-2 0 -7 -4 -10 -10z"/>
<path d="M5798 6475 c2 -25 8 -45 12 -45 13 0 21 33 10 44 -5 5 -10 18 -10 28
0 10 -3 18 -8 18 -4 0 -6 -20 -4 -45z"/>
<path d="M5851 6421 c-1 -7 -7 -11 -16 -7 -20 7 -19 -14 2 -61 17 -36 49 -73
63 -73 4 0 7 14 7 30 0 17 -4 30 -9 30 -5 0 -6 9 -3 20 4 12 2 20 -5 20 -7 0
-9 7 -6 16 4 11 2 15 -8 11 -9 -4 -17 1 -19 11 -3 10 -5 11 -6 3z"/>
<path d="M5975 6080 c3 -5 8 -10 11 -10 2 0 4 5 4 10 0 6 -5 10 -11 10 -5 0
-7 -4 -4 -10z"/>
<path d="M5994 6046 c-3 -7 -6 -24 -8 -37 -2 -13 -10 -40 -18 -59 -8 -19 -13
-39 -9 -45 11 -19 10 -39 -3 -70 -7 -16 -14 -45 -15 -63 -1 -19 -11 -52 -23
-75 -12 -23 -23 -44 -23 -47 -6 -22 -29 -68 -41 -81 -8 -9 -16 -26 -17 -38 -1
-11 -5 -21 -9 -21 -5 0 -12 -10 -17 -22 -11 -30 -134 -192 -147 -195 -6 -1 -8
33 -6 89 3 85 2 90 -15 86 -14 -4 -19 0 -18 13 1 10 4 22 8 25 13 14 -15 34
-39 28 -20 -5 -24 -2 -24 15 0 12 -3 21 -8 21 -4 0 -7 -16 -6 -37 1 -20 -4
-42 -11 -50 -17 -16 -31 -103 -19 -112 5 -3 9 -36 9 -73 0 -38 3 -68 7 -68 4
0 5 -19 4 -42 -2 -24 3 -79 11 -123 10 -56 11 -93 4 -124 -8 -38 -7 -47 7 -57
14 -11 18 -9 23 11 8 29 54 97 61 89 3 -3 10 9 16 25 7 20 18 31 30 31 10 0
27 9 37 20 10 11 23 20 29 20 23 0 69 55 100 119 17 37 39 78 49 91 9 13 17
34 17 47 0 12 4 24 9 27 5 3 12 39 16 78 3 40 17 127 30 193 22 110 45 305 45
381 0 33 -26 55 -36 30z"/>
<path d="M13506 5865 c4 -8 8 -15 10 -15 2 0 4 7 4 15 0 8 -4 15 -10 15 -5 0
-7 -7 -4 -15z"/>
<path d="M6270 5806 c0 -8 -3 -23 -6 -33 -3 -10 2 -7 10 7 18 30 20 40 6 40
-5 0 -10 -6 -10 -14z"/>
<path d="M13946 5778 c-3 -13 -6 -27 -6 -33 1 -15 30 27 30 42 0 22 -17 15
-24 -9z"/>
<path d="M6246 5724 c-4 -9 -4 -19 -1 -22 2 -3 7 3 11 12 4 9 4 19 1 22 -2 3
-7 -3 -11 -12z"/>
<path d="M5490 5689 c0 -5 5 -7 10 -4 6 3 10 8 10 11 0 2 -4 4 -10 4 -5 0 -10
-5 -10 -11z"/>
<path d="M13085 5690 c3 -5 8 -10 11 -10 2 0 4 5 4 10 0 6 -5 10 -11 10 -5 0
-7 -4 -4 -10z"/>
<path d="M13153 5559 c-1 -10 2 -19 8 -19 11 0 12 27 1 34 -4 2 -9 -4 -9 -15z"/>
<path d="M6041 5433 c-5 -10 -14 -36 -20 -58 l-11 -40 25 30 c13 17 24 42 25
58 0 31 -5 34 -19 10z"/>
<path d="M5937 5258 c-23 -51 -21 -66 4 -34 11 15 19 36 16 48 -3 20 -5 19
-20 -14z"/>
<path d="M13728 5207 c-12 -29 -10 -63 3 -50 6 6 9 23 7 39 -2 24 -4 26 -10
11z"/>
</g>
</svg>
